<svg xmlns="http://www.w3.org/2000/svg" xmlns:xlink="http://www.w3.org/1999/xlink" width="500" zoomAndPan="magnify" viewBox="0 0 375 374.999991" height="500" preserveAspectRatio="xMidYMid meet" version="1.0"><defs><g/><clipPath id="aeabbfda99"><path d="M 267 165 L 289 165 L 289 187 L 267 187 Z M 267 165 " clip-rule="nonzero"/></clipPath><clipPath id="7c7c78eaaa"><path d="M 263.527344 168.453125 L 278.398438 154.707031 L 298.761719 176.738281 L 283.890625 190.484375 Z M 263.527344 168.453125 " clip-rule="nonzero"/></clipPath><clipPath id="d935de8b97"><path d="M 263.527344 168.453125 L 278.398438 154.707031 L 298.761719 176.738281 L 283.890625 190.484375 Z M 263.527344 168.453125 " clip-rule="nonzero"/></clipPath><clipPath id="1ef67d401b"><path d="M 278 155 L 300 155 L 300 177 L 278 177 Z M 278 155 " clip-rule="nonzero"/></clipPath><clipPath id="fb31e1f973"><path d="M 274.199219 158.589844 L 289.070312 144.84375 L 309.429688 166.875 L 294.558594 180.621094 Z M 274.199219 158.589844 " clip-rule="nonzero"/></clipPath><clipPath id="27d1cc0023"><path d="M 274.199219 158.589844 L 289.070312 144.84375 L 309.429688 166.875 L 294.558594 180.621094 Z M 274.199219 158.589844 " clip-rule="nonzero"/></clipPath></defs><rect x="-37.5" width="450" fill="#ffffff" y="-37.499999" height="449.999989" fill-opacity="1"/><rect x="-37.5" width="450" fill="#ffffff" y="-37.499999" height="449.999989" fill-opacity="1"/><g clip-path="url(#aeabbfda99)"><g clip-path="url(#7c7c78eaaa)"><g clip-path="url(#d935de8b97)"><path fill="#18cb96" d="M 288.734375 165.996094 L 270.710938 165.191406 C 267.226562 165.039062 266.640625 171.820312 270.765625 171.933594 L 281.980469 172.234375 L 281.125 183.519531 C 280.863281 186.957031 287.566406 187.320312 287.757812 183.828125 Z M 288.734375 165.996094 " fill-opacity="1" fill-rule="nonzero"/></g></g></g><g clip-path="url(#1ef67d401b)"><g clip-path="url(#fb31e1f973)"><g clip-path="url(#27d1cc0023)"><path fill="#18cb96" d="M 299.40625 156.132812 L 281.378906 155.332031 C 277.898438 155.175781 277.3125 161.957031 281.4375 162.070312 L 292.652344 162.375 L 291.792969 173.660156 C 291.535156 177.09375 298.234375 177.457031 298.425781 173.964844 Z M 299.40625 156.132812 " fill-opacity="1" fill-rule="nonzero"/></g></g></g><g fill="#373643" fill-opacity="1"><g transform="translate(100.331642, 204.845628)"><g><path d="M 18.296875 -34.171875 C 19.585938 -34.171875 20.992188 -34.054688 22.515625 -33.828125 C 24.035156 -33.597656 25.472656 -33.160156 26.828125 -32.515625 C 28.179688 -31.867188 29.296875 -30.921875 30.171875 -29.671875 C 31.054688 -28.421875 31.5 -26.796875 31.5 -24.796875 C 31.5 -23.648438 31.21875 -22.46875 30.65625 -21.25 C 30.101562 -20.03125 29.328125 -19.132812 28.328125 -18.5625 C 30.191406 -17.8125 31.578125 -16.726562 32.484375 -15.3125 C 33.398438 -13.90625 33.859375 -12.253906 33.859375 -10.359375 C 33.859375 -8.285156 33.4375 -6.578125 32.59375 -5.234375 C 31.75 -3.890625 30.628906 -2.832031 29.234375 -2.0625 C 27.847656 -1.289062 26.300781 -0.753906 24.59375 -0.453125 C 22.894531 -0.148438 21.171875 0 19.421875 0 L 6.328125 0 C 5.472656 0 4.734375 -0.273438 4.109375 -0.828125 C 3.484375 -1.378906 3.171875 -2.050781 3.171875 -2.84375 L 3.171875 -31.328125 C 3.171875 -32.148438 3.484375 -32.828125 4.109375 -33.359375 C 4.734375 -33.898438 5.472656 -34.171875 6.328125 -34.171875 Z M 18.296875 -28.859375 L 9.390625 -28.859375 L 9.390625 -20.546875 L 18.453125 -20.546875 C 20.273438 -20.546875 21.875 -20.875 23.25 -21.53125 C 24.632812 -22.195312 25.328125 -23.285156 25.328125 -24.796875 C 25.328125 -25.972656 24.921875 -26.847656 24.109375 -27.421875 C 23.304688 -27.992188 22.359375 -28.375 21.265625 -28.5625 C 20.179688 -28.757812 19.191406 -28.859375 18.296875 -28.859375 Z M 20.984375 -15.234375 L 9.390625 -15.234375 L 9.390625 -5.3125 L 19.421875 -5.3125 C 20.710938 -5.3125 21.984375 -5.4375 23.234375 -5.6875 C 24.484375 -5.9375 25.507812 -6.425781 26.3125 -7.15625 C 27.125 -7.894531 27.53125 -8.960938 27.53125 -10.359375 C 27.53125 -12.003906 26.894531 -13.226562 25.625 -14.03125 C 24.351562 -14.832031 22.804688 -15.234375 20.984375 -15.234375 Z M 20.984375 -15.234375 "/></g></g></g><g fill="#373643" fill-opacity="1"><g transform="translate(135.150553, 204.845628)"><g><path d="M 15.34375 -27.84375 C 18.207031 -27.84375 20.710938 -27.242188 22.859375 -26.046875 C 25.003906 -24.847656 26.664062 -23.175781 27.84375 -21.03125 C 29.03125 -18.882812 29.625 -16.378906 29.625 -13.515625 C 29.582031 -10.734375 28.960938 -8.285156 27.765625 -6.171875 C 26.566406 -4.054688 24.898438 -2.410156 22.765625 -1.234375 C 20.640625 -0.0546875 18.164062 0.53125 15.34375 0.53125 C 12.550781 0.53125 10.082031 -0.0546875 7.9375 -1.234375 C 5.789062 -2.410156 4.117188 -4.054688 2.921875 -6.171875 C 1.722656 -8.285156 1.109375 -10.734375 1.078125 -13.515625 C 1.078125 -16.378906 1.675781 -18.882812 2.875 -21.03125 C 4.070312 -23.175781 5.742188 -24.847656 7.890625 -26.046875 C 10.035156 -27.242188 12.519531 -27.84375 15.34375 -27.84375 Z M 15.34375 -4.828125 C 17.78125 -4.828125 19.722656 -5.628906 21.171875 -7.234375 C 22.617188 -8.847656 23.34375 -10.941406 23.34375 -13.515625 C 23.34375 -16.160156 22.617188 -18.316406 21.171875 -19.984375 C 19.722656 -21.648438 17.78125 -22.484375 15.34375 -22.484375 C 12.945312 -22.484375 11.015625 -21.648438 9.546875 -19.984375 C 8.078125 -18.316406 7.34375 -16.160156 7.34375 -13.515625 C 7.34375 -10.941406 8.078125 -8.847656 9.546875 -7.234375 C 11.015625 -5.628906 12.945312 -4.828125 15.34375 -4.828125 Z M 15.34375 -4.828125 "/></g></g></g><g fill="#373643" fill-opacity="1"><g transform="translate(164.926284, 204.845628)"><g><path d="M 15.34375 -27.84375 C 18.207031 -27.84375 20.710938 -27.242188 22.859375 -26.046875 C 25.003906 -24.847656 26.664062 -23.175781 27.84375 -21.03125 C 29.03125 -18.882812 29.625 -16.378906 29.625 -13.515625 C 29.582031 -10.734375 28.960938 -8.285156 27.765625 -6.171875 C 26.566406 -4.054688 24.898438 -2.410156 22.765625 -1.234375 C 20.640625 -0.0546875 18.164062 0.53125 15.34375 0.53125 C 12.550781 0.53125 10.082031 -0.0546875 7.9375 -1.234375 C 5.789062 -2.410156 4.117188 -4.054688 2.921875 -6.171875 C 1.722656 -8.285156 1.109375 -10.734375 1.078125 -13.515625 C 1.078125 -16.378906 1.675781 -18.882812 2.875 -21.03125 C 4.070312 -23.175781 5.742188 -24.847656 7.890625 -26.046875 C 10.035156 -27.242188 12.519531 -27.84375 15.34375 -27.84375 Z M 15.34375 -4.828125 C 17.78125 -4.828125 19.722656 -5.628906 21.171875 -7.234375 C 22.617188 -8.847656 23.34375 -10.941406 23.34375 -13.515625 C 23.34375 -16.160156 22.617188 -18.316406 21.171875 -19.984375 C 19.722656 -21.648438 17.78125 -22.484375 15.34375 -22.484375 C 12.945312 -22.484375 11.015625 -21.648438 9.546875 -19.984375 C 8.078125 -18.316406 7.34375 -16.160156 7.34375 -13.515625 C 7.34375 -10.941406 8.078125 -8.847656 9.546875 -7.234375 C 11.015625 -5.628906 12.945312 -4.828125 15.34375 -4.828125 Z M 15.34375 -4.828125 "/></g></g></g><g fill="#373643" fill-opacity="1"><g transform="translate(194.702015, 204.845628)"><g><path d="M 24.03125 -4.609375 C 24.644531 -3.859375 24.890625 -3.132812 24.765625 -2.4375 C 24.640625 -1.738281 24.296875 -1.15625 23.734375 -0.6875 C 23.179688 -0.226562 22.550781 0 21.84375 0 C 20.875 0 20.050781 -0.394531 19.375 -1.1875 L 10.296875 -11.265625 L 8.75 -9.875 L 8.75 -2.734375 C 8.75 -1.835938 8.414062 -1.15625 7.75 -0.6875 C 7.09375 -0.226562 6.390625 0 5.640625 0 C 4.847656 0 4.144531 -0.226562 3.53125 -0.6875 C 2.925781 -1.15625 2.625 -1.835938 2.625 -2.734375 L 2.625 -31.984375 C 2.625 -32.910156 2.925781 -33.597656 3.53125 -34.046875 C 4.144531 -34.492188 4.863281 -34.71875 5.6875 -34.71875 C 6.507812 -34.71875 7.222656 -34.492188 7.828125 -34.046875 C 8.441406 -33.597656 8.75 -32.910156 8.75 -31.984375 L 8.75 -17.171875 L 18.671875 -26.453125 C 19.347656 -27.023438 20.097656 -27.3125 20.921875 -27.3125 C 21.785156 -27.3125 22.519531 -27.03125 23.125 -26.46875 C 23.726562 -25.914062 24.03125 -25.285156 24.03125 -24.578125 C 24.03125 -23.898438 23.65625 -23.203125 22.90625 -22.484375 L 14.484375 -15.03125 Z M 24.03125 -4.609375 "/></g></g></g><g fill="#373643" fill-opacity="1"><g transform="translate(219.112668, 204.845628)"><g><path d="M 8.046875 -31.328125 C 8.046875 -30.441406 7.710938 -29.773438 7.046875 -29.328125 C 6.390625 -28.878906 5.6875 -28.65625 4.9375 -28.65625 C 4.144531 -28.65625 3.425781 -28.878906 2.78125 -29.328125 C 2.144531 -29.773438 1.828125 -30.441406 1.828125 -31.328125 L 1.828125 -32.03125 C 1.828125 -32.957031 2.144531 -33.632812 2.78125 -34.0625 C 3.425781 -34.5 4.144531 -34.71875 4.9375 -34.71875 C 5.6875 -34.71875 6.390625 -34.5 7.046875 -34.0625 C 7.710938 -33.632812 8.046875 -32.957031 8.046875 -32.03125 Z M 1.875 -24.6875 C 1.875 -25.539062 2.203125 -26.191406 2.859375 -26.640625 C 3.523438 -27.085938 4.21875 -27.3125 4.9375 -27.3125 C 5.6875 -27.3125 6.382812 -27.085938 7.03125 -26.640625 C 7.675781 -26.191406 8 -25.554688 8 -24.734375 L 8 -2.625 C 8 -1.726562 7.675781 -1.066406 7.03125 -0.640625 C 6.382812 -0.210938 5.6875 0 4.9375 0 C 4.21875 0 3.523438 -0.210938 2.859375 -0.640625 C 2.203125 -1.066406 1.875 -1.726562 1.875 -2.625 Z M 1.875 -24.6875 "/></g></g></g><g fill="#373643" fill-opacity="1"><g transform="translate(227.910925, 204.845628)"><g><path d="M 12.34375 -30.265625 C 11.695312 -30.265625 11.101562 -30.046875 10.5625 -29.609375 C 10.03125 -29.179688 9.765625 -28.523438 9.765625 -27.640625 L 9.765625 -26.71875 L 13.3125 -26.71875 C 14.195312 -26.71875 14.84375 -26.445312 15.25 -25.90625 C 15.664062 -25.375 15.875 -24.804688 15.875 -24.203125 C 15.875 -23.554688 15.664062 -22.972656 15.25 -22.453125 C 14.84375 -21.929688 14.195312 -21.671875 13.3125 -21.671875 L 9.765625 -21.671875 L 9.765625 -2.6875 C 9.765625 -1.789062 9.441406 -1.117188 8.796875 -0.671875 C 8.148438 -0.222656 7.453125 0 6.703125 0 C 5.921875 0 5.21875 -0.222656 4.59375 -0.671875 C 3.96875 -1.117188 3.65625 -1.789062 3.65625 -2.6875 L 3.65625 -21.671875 L 2.25 -21.671875 C 1.351562 -21.671875 0.671875 -21.929688 0.203125 -22.453125 C -0.253906 -22.972656 -0.484375 -23.554688 -0.484375 -24.203125 C -0.484375 -24.804688 -0.253906 -25.375 0.203125 -25.90625 C 0.671875 -26.445312 1.351562 -26.71875 2.25 -26.71875 L 3.65625 -26.71875 L 3.65625 -27.640625 C 3.65625 -29.316406 4.054688 -30.734375 4.859375 -31.890625 C 5.660156 -33.054688 6.710938 -33.941406 8.015625 -34.546875 C 9.328125 -35.160156 10.695312 -35.46875 12.125 -35.46875 C 13.164062 -35.46875 14.1875 -35.320312 15.1875 -35.03125 C 16.1875 -34.75 17.097656 -34.25 17.921875 -33.53125 C 18.597656 -32.925781 18.925781 -32.265625 18.90625 -31.546875 C 18.894531 -30.835938 18.644531 -30.210938 18.15625 -29.671875 C 17.675781 -29.128906 17.078125 -28.804688 16.359375 -28.703125 C 15.648438 -28.597656 14.9375 -28.867188 14.21875 -29.515625 C 13.71875 -30.015625 13.09375 -30.265625 12.34375 -30.265625 Z M 12.34375 -30.265625 "/></g></g></g><g fill="#373643" fill-opacity="1"><g transform="translate(244.649508, 204.845628)"><g><path d="M 25 -27.3125 C 25.9375 -27.3125 26.734375 -26.90625 27.390625 -26.09375 C 28.054688 -25.289062 28.191406 -24.351562 27.796875 -23.28125 L 12.125 7.453125 C 11.769531 8.140625 11.3125 8.675781 10.75 9.0625 C 10.195312 9.457031 9.617188 9.65625 9.015625 9.65625 C 8.410156 9.65625 7.847656 9.445312 7.328125 9.03125 C 6.804688 8.625 6.445312 8.097656 6.25 7.453125 C 6.050781 6.816406 6.132812 6.140625 6.5 5.421875 L 10.5625 -2.625 L 0 -23.078125 C -0.320312 -23.785156 -0.363281 -24.460938 -0.125 -25.109375 C 0.101562 -25.753906 0.484375 -26.28125 1.015625 -26.6875 C 1.554688 -27.101562 2.148438 -27.3125 2.796875 -27.3125 C 3.367188 -27.3125 3.921875 -27.128906 4.453125 -26.765625 C 4.992188 -26.410156 5.390625 -25.945312 5.640625 -25.375 L 13.890625 -9.234375 L 22.15625 -25.4375 C 22.40625 -26.007812 22.78125 -26.460938 23.28125 -26.796875 C 23.78125 -27.140625 24.351562 -27.3125 25 -27.3125 Z M 25 -27.3125 "/></g></g></g><g fill="#373643" fill-opacity="1"><g transform="translate(98.385535, 225.769265)"><g><path d="M 12.21875 -9.34375 C 13.257812 -9.34375 14.113281 -9.007812 14.78125 -8.34375 C 15.445312 -7.675781 15.78125 -6.679688 15.78125 -5.359375 L 15.78125 0 L 15.03125 0 L 15.03125 -5.3125 C 15.03125 -6.40625 14.769531 -7.238281 14.25 -7.8125 C 13.726562 -8.394531 13.007812 -8.6875 12.09375 -8.6875 C 11.15625 -8.6875 10.394531 -8.359375 9.8125 -7.703125 C 9.238281 -7.054688 8.953125 -6.113281 8.953125 -4.875 L 8.953125 0 L 8.21875 0 L 8.21875 -5.3125 C 8.21875 -6.40625 7.957031 -7.238281 7.4375 -7.8125 C 6.914062 -8.394531 6.195312 -8.6875 5.28125 -8.6875 C 4.332031 -8.6875 3.570312 -8.359375 3 -7.703125 C 2.425781 -7.054688 2.140625 -6.113281 2.140625 -4.875 L 2.140625 0 L 1.390625 0 L 1.390625 -9.15625 L 2.140625 -9.15625 L 2.140625 -7.171875 C 2.398438 -7.890625 2.816406 -8.429688 3.390625 -8.796875 C 3.972656 -9.160156 4.644531 -9.34375 5.40625 -9.34375 C 6.238281 -9.34375 6.953125 -9.125 7.546875 -8.6875 C 8.148438 -8.257812 8.566406 -7.625 8.796875 -6.78125 C 9.003906 -7.625 9.414062 -8.257812 10.03125 -8.6875 C 10.65625 -9.125 11.382812 -9.34375 12.21875 -9.34375 Z M 12.21875 -9.34375 "/></g></g></g><g fill="#373643" fill-opacity="1"><g transform="translate(114.841343, 225.769265)"><g><path d="M 0.90625 -4.59375 C 0.90625 -5.53125 1.09375 -6.351562 1.46875 -7.0625 C 1.851562 -7.78125 2.378906 -8.328125 3.046875 -8.703125 C 3.710938 -9.085938 4.472656 -9.28125 5.328125 -9.28125 C 6.296875 -9.28125 7.117188 -9.039062 7.796875 -8.5625 C 8.472656 -8.09375 8.945312 -7.492188 9.21875 -6.765625 L 9.21875 -9.15625 L 9.96875 -9.15625 L 9.96875 0 L 9.21875 0 L 9.21875 -2.40625 C 8.945312 -1.664062 8.46875 -1.054688 7.78125 -0.578125 C 7.101562 -0.0976562 6.285156 0.140625 5.328125 0.140625 C 4.472656 0.140625 3.710938 -0.0507812 3.046875 -0.4375 C 2.378906 -0.832031 1.851562 -1.382812 1.46875 -2.09375 C 1.09375 -2.8125 0.90625 -3.644531 0.90625 -4.59375 Z M 9.21875 -4.59375 C 9.21875 -5.382812 9.050781 -6.085938 8.71875 -6.703125 C 8.382812 -7.316406 7.929688 -7.789062 7.359375 -8.125 C 6.785156 -8.457031 6.144531 -8.625 5.4375 -8.625 C 4.6875 -8.625 4.03125 -8.460938 3.46875 -8.140625 C 2.90625 -7.816406 2.46875 -7.351562 2.15625 -6.75 C 1.84375 -6.144531 1.6875 -5.425781 1.6875 -4.59375 C 1.6875 -3.757812 1.84375 -3.035156 2.15625 -2.421875 C 2.46875 -1.816406 2.910156 -1.351562 3.484375 -1.03125 C 4.054688 -0.707031 4.707031 -0.546875 5.4375 -0.546875 C 6.144531 -0.546875 6.785156 -0.707031 7.359375 -1.03125 C 7.941406 -1.363281 8.394531 -1.835938 8.71875 -2.453125 C 9.050781 -3.066406 9.21875 -3.78125 9.21875 -4.59375 Z M 9.21875 -4.59375 "/></g></g></g><g fill="#373643" fill-opacity="1"><g transform="translate(125.558662, 225.769265)"><g><path d="M 2.140625 -7.265625 C 2.367188 -7.941406 2.769531 -8.457031 3.34375 -8.8125 C 3.914062 -9.164062 4.644531 -9.34375 5.53125 -9.34375 L 5.53125 -8.5625 L 5.28125 -8.5625 C 4.382812 -8.5625 3.632812 -8.300781 3.03125 -7.78125 C 2.4375 -7.269531 2.140625 -6.4375 2.140625 -5.28125 L 2.140625 0 L 1.390625 0 L 1.390625 -9.15625 L 2.140625 -9.15625 Z M 2.140625 -7.265625 "/></g></g></g><g fill="#373643" fill-opacity="1"><g transform="translate(130.824403, 225.769265)"><g><path d="M 6.140625 0 L 2.140625 -4.203125 L 2.140625 0 L 1.390625 0 L 1.390625 -12.484375 L 2.140625 -12.484375 L 2.140625 -5.015625 L 6.078125 -9.15625 L 7.140625 -9.15625 L 2.703125 -4.609375 L 7.1875 0 Z M 6.140625 0 "/></g></g></g><g fill="#373643" fill-opacity="1"><g transform="translate(137.558522, 225.769265)"><g><path d="M 9.640625 -5.203125 C 9.640625 -4.796875 9.628906 -4.488281 9.609375 -4.28125 L 1.6875 -4.28125 C 1.707031 -3.457031 1.882812 -2.765625 2.21875 -2.203125 C 2.5625 -1.640625 3.007812 -1.21875 3.5625 -0.9375 C 4.113281 -0.65625 4.710938 -0.515625 5.359375 -0.515625 C 6.265625 -0.515625 7.019531 -0.738281 7.625 -1.1875 C 8.226562 -1.632812 8.613281 -2.238281 8.78125 -3 L 9.5625 -3 C 9.382812 -2.070312 8.925781 -1.316406 8.1875 -0.734375 C 7.445312 -0.148438 6.503906 0.140625 5.359375 0.140625 C 4.503906 0.140625 3.738281 -0.0507812 3.0625 -0.4375 C 2.394531 -0.820312 1.867188 -1.367188 1.484375 -2.078125 C 1.097656 -2.796875 0.90625 -3.632812 0.90625 -4.59375 C 0.90625 -5.550781 1.09375 -6.382812 1.46875 -7.09375 C 1.851562 -7.800781 2.378906 -8.34375 3.046875 -8.71875 C 3.722656 -9.09375 4.492188 -9.28125 5.359375 -9.28125 C 6.242188 -9.28125 7.007812 -9.09375 7.65625 -8.71875 C 8.300781 -8.34375 8.789062 -7.84375 9.125 -7.21875 C 9.46875 -6.59375 9.640625 -5.921875 9.640625 -5.203125 Z M 8.875 -4.90625 C 8.90625 -5.71875 8.757812 -6.40625 8.4375 -6.96875 C 8.125 -7.53125 7.691406 -7.945312 7.140625 -8.21875 C 6.585938 -8.5 5.988281 -8.640625 5.34375 -8.640625 C 4.707031 -8.640625 4.113281 -8.5 3.5625 -8.21875 C 3.019531 -7.945312 2.578125 -7.53125 2.234375 -6.96875 C 1.890625 -6.40625 1.707031 -5.71875 1.6875 -4.90625 Z M 8.875 -4.90625 "/></g></g></g><g fill="#373643" fill-opacity="1"><g transform="translate(147.465696, 225.769265)"><g><path d="M 2.515625 -8.5 L 2.515625 -2.453125 C 2.515625 -1.773438 2.632812 -1.304688 2.875 -1.046875 C 3.125 -0.796875 3.566406 -0.671875 4.203125 -0.671875 L 5.234375 -0.671875 L 5.234375 0 L 4.078125 0 C 3.285156 0 2.695312 -0.1875 2.3125 -0.5625 C 1.9375 -0.9375 1.75 -1.566406 1.75 -2.453125 L 1.75 -8.5 L 0.375 -8.5 L 0.375 -9.15625 L 1.75 -9.15625 L 1.75 -11.484375 L 2.515625 -11.484375 L 2.515625 -9.15625 L 5.234375 -9.15625 L 5.234375 -8.5 Z M 2.515625 -8.5 "/></g></g></g><g fill="#373643" fill-opacity="1"><g transform="translate(152.680803, 225.769265)"><g><path d="M 1.765625 -11.203125 C 1.585938 -11.203125 1.4375 -11.257812 1.3125 -11.375 C 1.1875 -11.5 1.125 -11.660156 1.125 -11.859375 C 1.125 -12.054688 1.1875 -12.210938 1.3125 -12.328125 C 1.4375 -12.453125 1.585938 -12.515625 1.765625 -12.515625 C 1.953125 -12.515625 2.101562 -12.453125 2.21875 -12.328125 C 2.34375 -12.210938 2.40625 -12.054688 2.40625 -11.859375 C 2.40625 -11.660156 2.34375 -11.5 2.21875 -11.375 C 2.101562 -11.257812 1.953125 -11.203125 1.765625 -11.203125 Z M 2.140625 -9.15625 L 2.140625 0 L 1.390625 0 L 1.390625 -9.15625 Z M 2.140625 -9.15625 "/></g></g></g><g fill="#373643" fill-opacity="1"><g transform="translate(155.583629, 225.769265)"><g><path d="M 5.515625 -9.34375 C 6.609375 -9.34375 7.5 -9.007812 8.1875 -8.34375 C 8.875 -7.675781 9.21875 -6.679688 9.21875 -5.359375 L 9.21875 0 L 8.46875 0 L 8.46875 -5.3125 C 8.46875 -6.40625 8.191406 -7.238281 7.640625 -7.8125 C 7.085938 -8.394531 6.34375 -8.6875 5.40625 -8.6875 C 4.414062 -8.6875 3.625 -8.367188 3.03125 -7.734375 C 2.4375 -7.109375 2.140625 -6.175781 2.140625 -4.9375 L 2.140625 0 L 1.390625 0 L 1.390625 -9.15625 L 2.140625 -9.15625 L 2.140625 -7.21875 C 2.398438 -7.90625 2.832031 -8.429688 3.4375 -8.796875 C 4.039062 -9.160156 4.734375 -9.34375 5.515625 -9.34375 Z M 5.515625 -9.34375 "/></g></g></g><g fill="#373643" fill-opacity="1"><g transform="translate(165.45705, 225.769265)"><g><path d="M 5.328125 -9.28125 C 6.296875 -9.28125 7.117188 -9.046875 7.796875 -8.578125 C 8.472656 -8.109375 8.945312 -7.507812 9.21875 -6.78125 L 9.21875 -9.15625 L 9.96875 -9.15625 L 9.96875 0.28125 C 9.96875 1.125 9.78125 1.863281 9.40625 2.5 C 9.039062 3.132812 8.539062 3.625 7.90625 3.96875 C 7.28125 4.3125 6.582031 4.484375 5.8125 4.484375 C 4.65625 4.484375 3.703125 4.207031 2.953125 3.65625 C 2.203125 3.101562 1.707031 2.363281 1.46875 1.4375 L 2.234375 1.4375 C 2.453125 2.164062 2.867188 2.742188 3.484375 3.171875 C 4.109375 3.609375 4.882812 3.828125 5.8125 3.828125 C 6.445312 3.828125 7.019531 3.679688 7.53125 3.390625 C 8.050781 3.109375 8.460938 2.695312 8.765625 2.15625 C 9.066406 1.625 9.21875 1 9.21875 0.28125 L 9.21875 -2.390625 C 8.945312 -1.660156 8.46875 -1.054688 7.78125 -0.578125 C 7.101562 -0.0976562 6.285156 0.140625 5.328125 0.140625 C 4.472656 0.140625 3.710938 -0.0507812 3.046875 -0.4375 C 2.378906 -0.832031 1.851562 -1.382812 1.46875 -2.09375 C 1.09375 -2.8125 0.90625 -3.644531 0.90625 -4.59375 C 0.90625 -5.53125 1.09375 -6.351562 1.46875 -7.0625 C 1.851562 -7.78125 2.378906 -8.328125 3.046875 -8.703125 C 3.710938 -9.085938 4.472656 -9.28125 5.328125 -9.28125 Z M 9.21875 -4.59375 C 9.21875 -5.382812 9.050781 -6.085938 8.71875 -6.703125 C 8.382812 -7.316406 7.929688 -7.789062 7.359375 -8.125 C 6.785156 -8.457031 6.144531 -8.625 5.4375 -8.625 C 4.6875 -8.625 4.03125 -8.460938 3.46875 -8.140625 C 2.90625 -7.816406 2.46875 -7.351562 2.15625 -6.75 C 1.84375 -6.144531 1.6875 -5.425781 1.6875 -4.59375 C 1.6875 -3.757812 1.84375 -3.035156 2.15625 -2.421875 C 2.46875 -1.816406 2.910156 -1.351562 3.484375 -1.03125 C 4.054688 -0.707031 4.707031 -0.546875 5.4375 -0.546875 C 6.144531 -0.546875 6.785156 -0.707031 7.359375 -1.03125 C 7.941406 -1.363281 8.394531 -1.835938 8.71875 -2.453125 C 9.050781 -3.066406 9.21875 -3.78125 9.21875 -4.59375 Z M 9.21875 -4.59375 "/></g></g></g><g fill="#373643" fill-opacity="1"><g transform="translate(176.174367, 225.769265)"><g/></g></g><g fill="#373643" fill-opacity="1"><g transform="translate(180.29241, 225.769265)"><g><path d="M 2.515625 -8.5 L 2.515625 -2.453125 C 2.515625 -1.773438 2.632812 -1.304688 2.875 -1.046875 C 3.125 -0.796875 3.566406 -0.671875 4.203125 -0.671875 L 5.234375 -0.671875 L 5.234375 0 L 4.078125 0 C 3.285156 0 2.695312 -0.1875 2.3125 -0.5625 C 1.9375 -0.9375 1.75 -1.566406 1.75 -2.453125 L 1.75 -8.5 L 0.375 -8.5 L 0.375 -9.15625 L 1.75 -9.15625 L 1.75 -11.484375 L 2.515625 -11.484375 L 2.515625 -9.15625 L 5.234375 -9.15625 L 5.234375 -8.5 Z M 2.515625 -8.5 "/></g></g></g><g fill="#373643" fill-opacity="1"><g transform="translate(185.507516, 225.769265)"><g><path d="M 5.53125 -9.34375 C 6.613281 -9.34375 7.5 -9.007812 8.1875 -8.34375 C 8.875 -7.675781 9.21875 -6.679688 9.21875 -5.359375 L 9.21875 0 L 8.46875 0 L 8.46875 -5.3125 C 8.46875 -6.40625 8.191406 -7.238281 7.640625 -7.8125 C 7.085938 -8.394531 6.34375 -8.6875 5.40625 -8.6875 C 4.414062 -8.6875 3.625 -8.367188 3.03125 -7.734375 C 2.4375 -7.109375 2.140625 -6.175781 2.140625 -4.9375 L 2.140625 0 L 1.390625 0 L 1.390625 -12.484375 L 2.140625 -12.484375 L 2.140625 -7.21875 C 2.398438 -7.90625 2.832031 -8.429688 3.4375 -8.796875 C 4.050781 -9.160156 4.75 -9.34375 5.53125 -9.34375 Z M 5.53125 -9.34375 "/></g></g></g><g fill="#373643" fill-opacity="1"><g transform="translate(195.380937, 225.769265)"><g><path d="M 0.90625 -4.59375 C 0.90625 -5.53125 1.09375 -6.351562 1.46875 -7.0625 C 1.851562 -7.78125 2.378906 -8.328125 3.046875 -8.703125 C 3.710938 -9.085938 4.472656 -9.28125 5.328125 -9.28125 C 6.296875 -9.28125 7.117188 -9.039062 7.796875 -8.5625 C 8.472656 -8.09375 8.945312 -7.492188 9.21875 -6.765625 L 9.21875 -9.15625 L 9.96875 -9.15625 L 9.96875 0 L 9.21875 0 L 9.21875 -2.40625 C 8.945312 -1.664062 8.46875 -1.054688 7.78125 -0.578125 C 7.101562 -0.0976562 6.285156 0.140625 5.328125 0.140625 C 4.472656 0.140625 3.710938 -0.0507812 3.046875 -0.4375 C 2.378906 -0.832031 1.851562 -1.382812 1.46875 -2.09375 C 1.09375 -2.8125 0.90625 -3.644531 0.90625 -4.59375 Z M 9.21875 -4.59375 C 9.21875 -5.382812 9.050781 -6.085938 8.71875 -6.703125 C 8.382812 -7.316406 7.929688 -7.789062 7.359375 -8.125 C 6.785156 -8.457031 6.144531 -8.625 5.4375 -8.625 C 4.6875 -8.625 4.03125 -8.460938 3.46875 -8.140625 C 2.90625 -7.816406 2.46875 -7.351562 2.15625 -6.75 C 1.84375 -6.144531 1.6875 -5.425781 1.6875 -4.59375 C 1.6875 -3.757812 1.84375 -3.035156 2.15625 -2.421875 C 2.46875 -1.816406 2.910156 -1.351562 3.484375 -1.03125 C 4.054688 -0.707031 4.707031 -0.546875 5.4375 -0.546875 C 6.144531 -0.546875 6.785156 -0.707031 7.359375 -1.03125 C 7.941406 -1.363281 8.394531 -1.835938 8.71875 -2.453125 C 9.050781 -3.066406 9.21875 -3.78125 9.21875 -4.59375 Z M 9.21875 -4.59375 "/></g></g></g><g fill="#373643" fill-opacity="1"><g transform="translate(206.098254, 225.769265)"><g><path d="M 2.515625 -8.5 L 2.515625 -2.453125 C 2.515625 -1.773438 2.632812 -1.304688 2.875 -1.046875 C 3.125 -0.796875 3.566406 -0.671875 4.203125 -0.671875 L 5.234375 -0.671875 L 5.234375 0 L 4.078125 0 C 3.285156 0 2.695312 -0.1875 2.3125 -0.5625 C 1.9375 -0.9375 1.75 -1.566406 1.75 -2.453125 L 1.75 -8.5 L 0.375 -8.5 L 0.375 -9.15625 L 1.75 -9.15625 L 1.75 -11.484375 L 2.515625 -11.484375 L 2.515625 -9.15625 L 5.234375 -9.15625 L 5.234375 -8.5 Z M 2.515625 -8.5 "/></g></g></g><g fill="#373643" fill-opacity="1"><g transform="translate(211.313367, 225.769265)"><g/></g></g><g fill="#373643" fill-opacity="1"><g transform="translate(215.43141, 225.769265)"><g><path d="M 12.21875 -9.34375 C 13.257812 -9.34375 14.113281 -9.007812 14.78125 -8.34375 C 15.445312 -7.675781 15.78125 -6.679688 15.78125 -5.359375 L 15.78125 0 L 15.03125 0 L 15.03125 -5.3125 C 15.03125 -6.40625 14.769531 -7.238281 14.25 -7.8125 C 13.726562 -8.394531 13.007812 -8.6875 12.09375 -8.6875 C 11.15625 -8.6875 10.394531 -8.359375 9.8125 -7.703125 C 9.238281 -7.054688 8.953125 -6.113281 8.953125 -4.875 L 8.953125 0 L 8.21875 0 L 8.21875 -5.3125 C 8.21875 -6.40625 7.957031 -7.238281 7.4375 -7.8125 C 6.914062 -8.394531 6.195312 -8.6875 5.28125 -8.6875 C 4.332031 -8.6875 3.570312 -8.359375 3 -7.703125 C 2.425781 -7.054688 2.140625 -6.113281 2.140625 -4.875 L 2.140625 0 L 1.390625 0 L 1.390625 -9.15625 L 2.140625 -9.15625 L 2.140625 -7.171875 C 2.398438 -7.890625 2.816406 -8.429688 3.390625 -8.796875 C 3.972656 -9.160156 4.644531 -9.34375 5.40625 -9.34375 C 6.238281 -9.34375 6.953125 -9.125 7.546875 -8.6875 C 8.148438 -8.257812 8.566406 -7.625 8.796875 -6.78125 C 9.003906 -7.625 9.414062 -8.257812 10.03125 -8.6875 C 10.65625 -9.125 11.382812 -9.34375 12.21875 -9.34375 Z M 12.21875 -9.34375 "/></g></g></g><g fill="#373643" fill-opacity="1"><g transform="translate(231.887215, 225.769265)"><g><path d="M 0.90625 -4.59375 C 0.90625 -5.53125 1.09375 -6.351562 1.46875 -7.0625 C 1.851562 -7.78125 2.378906 -8.328125 3.046875 -8.703125 C 3.710938 -9.085938 4.472656 -9.28125 5.328125 -9.28125 C 6.296875 -9.28125 7.117188 -9.039062 7.796875 -8.5625 C 8.472656 -8.09375 8.945312 -7.492188 9.21875 -6.765625 L 9.21875 -9.15625 L 9.96875 -9.15625 L 9.96875 0 L 9.21875 0 L 9.21875 -2.40625 C 8.945312 -1.664062 8.46875 -1.054688 7.78125 -0.578125 C 7.101562 -0.0976562 6.285156 0.140625 5.328125 0.140625 C 4.472656 0.140625 3.710938 -0.0507812 3.046875 -0.4375 C 2.378906 -0.832031 1.851562 -1.382812 1.46875 -2.09375 C 1.09375 -2.8125 0.90625 -3.644531 0.90625 -4.59375 Z M 9.21875 -4.59375 C 9.21875 -5.382812 9.050781 -6.085938 8.71875 -6.703125 C 8.382812 -7.316406 7.929688 -7.789062 7.359375 -8.125 C 6.785156 -8.457031 6.144531 -8.625 5.4375 -8.625 C 4.6875 -8.625 4.03125 -8.460938 3.46875 -8.140625 C 2.90625 -7.816406 2.46875 -7.351562 2.15625 -6.75 C 1.84375 -6.144531 1.6875 -5.425781 1.6875 -4.59375 C 1.6875 -3.757812 1.84375 -3.035156 2.15625 -2.421875 C 2.46875 -1.816406 2.910156 -1.351562 3.484375 -1.03125 C 4.054688 -0.707031 4.707031 -0.546875 5.4375 -0.546875 C 6.144531 -0.546875 6.785156 -0.707031 7.359375 -1.03125 C 7.941406 -1.363281 8.394531 -1.835938 8.71875 -2.453125 C 9.050781 -3.066406 9.21875 -3.78125 9.21875 -4.59375 Z M 9.21875 -4.59375 "/></g></g></g><g fill="#373643" fill-opacity="1"><g transform="translate(242.604533, 225.769265)"><g><path d="M 2.515625 -8.5 L 2.515625 -2.453125 C 2.515625 -1.773438 2.632812 -1.304688 2.875 -1.046875 C 3.125 -0.796875 3.566406 -0.671875 4.203125 -0.671875 L 5.234375 -0.671875 L 5.234375 0 L 4.078125 0 C 3.285156 0 2.695312 -0.1875 2.3125 -0.5625 C 1.9375 -0.9375 1.75 -1.566406 1.75 -2.453125 L 1.75 -8.5 L 0.375 -8.5 L 0.375 -9.15625 L 1.75 -9.15625 L 1.75 -11.484375 L 2.515625 -11.484375 L 2.515625 -9.15625 L 5.234375 -9.15625 L 5.234375 -8.5 Z M 2.515625 -8.5 "/></g></g></g><g fill="#373643" fill-opacity="1"><g transform="translate(247.81964, 225.769265)"><g><path d="M 2.515625 -8.5 L 2.515625 -2.453125 C 2.515625 -1.773438 2.632812 -1.304688 2.875 -1.046875 C 3.125 -0.796875 3.566406 -0.671875 4.203125 -0.671875 L 5.234375 -0.671875 L 5.234375 0 L 4.078125 0 C 3.285156 0 2.695312 -0.1875 2.3125 -0.5625 C 1.9375 -0.9375 1.75 -1.566406 1.75 -2.453125 L 1.75 -8.5 L 0.375 -8.5 L 0.375 -9.15625 L 1.75 -9.15625 L 1.75 -11.484375 L 2.515625 -11.484375 L 2.515625 -9.15625 L 5.234375 -9.15625 L 5.234375 -8.5 Z M 2.515625 -8.5 "/></g></g></g><g fill="#373643" fill-opacity="1"><g transform="translate(253.034746, 225.769265)"><g><path d="M 9.640625 -5.203125 C 9.640625 -4.796875 9.628906 -4.488281 9.609375 -4.28125 L 1.6875 -4.28125 C 1.707031 -3.457031 1.882812 -2.765625 2.21875 -2.203125 C 2.5625 -1.640625 3.007812 -1.21875 3.5625 -0.9375 C 4.113281 -0.65625 4.710938 -0.515625 5.359375 -0.515625 C 6.265625 -0.515625 7.019531 -0.738281 7.625 -1.1875 C 8.226562 -1.632812 8.613281 -2.238281 8.78125 -3 L 9.5625 -3 C 9.382812 -2.070312 8.925781 -1.316406 8.1875 -0.734375 C 7.445312 -0.148438 6.503906 0.140625 5.359375 0.140625 C 4.503906 0.140625 3.738281 -0.0507812 3.0625 -0.4375 C 2.394531 -0.820312 1.867188 -1.367188 1.484375 -2.078125 C 1.097656 -2.796875 0.90625 -3.632812 0.90625 -4.59375 C 0.90625 -5.550781 1.09375 -6.382812 1.46875 -7.09375 C 1.851562 -7.800781 2.378906 -8.34375 3.046875 -8.71875 C 3.722656 -9.09375 4.492188 -9.28125 5.359375 -9.28125 C 6.242188 -9.28125 7.007812 -9.09375 7.65625 -8.71875 C 8.300781 -8.34375 8.789062 -7.84375 9.125 -7.21875 C 9.46875 -6.59375 9.640625 -5.921875 9.640625 -5.203125 Z M 8.875 -4.90625 C 8.90625 -5.71875 8.757812 -6.40625 8.4375 -6.96875 C 8.125 -7.53125 7.691406 -7.945312 7.140625 -8.21875 C 6.585938 -8.5 5.988281 -8.640625 5.34375 -8.640625 C 4.707031 -8.640625 4.113281 -8.5 3.5625 -8.21875 C 3.019531 -7.945312 2.578125 -7.53125 2.234375 -6.96875 C 1.890625 -6.40625 1.707031 -5.71875 1.6875 -4.90625 Z M 8.875 -4.90625 "/></g></g></g><g fill="#373643" fill-opacity="1"><g transform="translate(262.94192, 225.769265)"><g><path d="M 2.140625 -7.265625 C 2.367188 -7.941406 2.769531 -8.457031 3.34375 -8.8125 C 3.914062 -9.164062 4.644531 -9.34375 5.53125 -9.34375 L 5.53125 -8.5625 L 5.28125 -8.5625 C 4.382812 -8.5625 3.632812 -8.300781 3.03125 -7.78125 C 2.4375 -7.269531 2.140625 -6.4375 2.140625 -5.28125 L 2.140625 0 L 1.390625 0 L 1.390625 -9.15625 L 2.140625 -9.15625 Z M 2.140625 -7.265625 "/></g></g></g><g fill="#373643" fill-opacity="1"><g transform="translate(268.207658, 225.769265)"><g><path d="M 4.4375 0.140625 C 3.414062 0.140625 2.582031 -0.0820312 1.9375 -0.53125 C 1.289062 -0.988281 0.925781 -1.632812 0.84375 -2.46875 L 1.625 -2.46875 C 1.675781 -1.863281 1.945312 -1.382812 2.4375 -1.03125 C 2.925781 -0.6875 3.59375 -0.515625 4.4375 -0.515625 C 5.132812 -0.515625 5.6875 -0.691406 6.09375 -1.046875 C 6.507812 -1.410156 6.71875 -1.847656 6.71875 -2.359375 C 6.71875 -2.722656 6.609375 -3.019531 6.390625 -3.25 C 6.171875 -3.476562 5.894531 -3.65625 5.5625 -3.78125 C 5.238281 -3.90625 4.796875 -4.039062 4.234375 -4.1875 C 3.554688 -4.363281 3.007812 -4.539062 2.59375 -4.71875 C 2.175781 -4.894531 1.820312 -5.15625 1.53125 -5.5 C 1.238281 -5.851562 1.09375 -6.320312 1.09375 -6.90625 C 1.09375 -7.332031 1.222656 -7.726562 1.484375 -8.09375 C 1.742188 -8.457031 2.101562 -8.742188 2.5625 -8.953125 C 3.019531 -9.171875 3.546875 -9.28125 4.140625 -9.28125 C 5.085938 -9.28125 5.859375 -9.039062 6.453125 -8.5625 C 7.046875 -8.082031 7.363281 -7.421875 7.40625 -6.578125 L 6.65625 -6.578125 C 6.613281 -7.191406 6.375 -7.6875 5.9375 -8.0625 C 5.5 -8.445312 4.894531 -8.640625 4.125 -8.640625 C 3.46875 -8.640625 2.925781 -8.46875 2.5 -8.125 C 2.070312 -7.789062 1.859375 -7.382812 1.859375 -6.90625 C 1.859375 -6.476562 1.976562 -6.128906 2.21875 -5.859375 C 2.457031 -5.597656 2.753906 -5.394531 3.109375 -5.25 C 3.460938 -5.113281 3.929688 -4.96875 4.515625 -4.8125 C 5.160156 -4.644531 5.675781 -4.476562 6.0625 -4.3125 C 6.457031 -4.144531 6.785156 -3.90625 7.046875 -3.59375 C 7.316406 -3.289062 7.453125 -2.878906 7.453125 -2.359375 C 7.453125 -1.890625 7.320312 -1.460938 7.0625 -1.078125 C 6.8125 -0.691406 6.453125 -0.390625 5.984375 -0.171875 C 5.523438 0.0351562 5.007812 0.140625 4.4375 0.140625 Z M 4.4375 0.140625 "/></g></g></g></svg>